<?xml version="1.0" encoding="iso-8859-1"?>
<!-- Generator: Adobe Illustrator 19.0.0, SVG Export Plug-In . SVG Version: 6.00 Build 0)  -->
<svg version="1.1" id="Layer_1" xmlns="http://www.w3.org/2000/svg" xmlns:xlink="http://www.w3.org/1999/xlink" x="0px" y="0px"
	 viewBox="0 0 488.802 488.802" style="enable-background:new 0 0 488.802 488.802;" xml:space="preserve">
<polygon style="fill:#B4BFBE;" points="12.401,105.602 282.001,109.602 334.801,4.002 12.401,4.002 "/>
<g>
	<rect x="152.4" y="12" style="fill:#8EA5A4;" width="16" height="96"/>
	<path style="fill:#8EA5A4;" d="M464.401,488.002h-440c-14.131,0-24-8.882-24-21.6v-440c0-12.462,10.264-26.4,24-26.4h440
		c13.736,0,24,13.938,24,26.4v440C488.401,479.12,478.532,488.002,464.401,488.002z M24.401,16.002c-3.813,0-8,5.443-8,10.4v440
		c0,5.054,5.595,5.6,8,5.6h440c2.405,0,8-0.546,8-5.6v-440c0-4.957-4.187-10.4-8-10.4C464.401,16.002,24.401,16.002,24.401,16.002z"
		/>
</g>
<path style="fill:#293f54;" d="M464.401,488.802h-440c-14.58,0-24-7.223-24-18.399v-348.8c0-4.129,1.73-17.6,24-17.6h254.506
	L316.934,5.13c1.586-4.124,6.213-6.181,10.339-4.595c4.124,1.586,6.181,6.215,4.595,10.338l-41.973,109.128H24.401
	c-5.078,0-7.406,0.975-7.993,1.422c-0.004,0.045-0.007,0.104-0.007,0.178v348.8c0,1.301,3.664,2.399,8,2.399h440
	c4.337,0,8-1.099,8-2.399v-348.8L472.359,8.172c-0.002-4.418,3.579-8.001,7.997-8.003c0.001,0,0.002,0,0.003,0
	c4.417,0,7.998,3.58,8,7.997l0.042,136.636v325.601C488.401,481.579,478.98,488.802,464.401,488.802z"/>
<path style="fill:#293f54;" d="M476.401,16.002h-152c-4.418,0-8-3.582-8-8s3.582-8,8-8h152c4.418,0,8,3.582,8,8
	S480.819,16.002,476.401,16.002z"/>
<g>
</g>
<g>
</g>
<g>
</g>
<g>
</g>
<g>
</g>
<g>
</g>
<g>
</g>
<g>
</g>
<g>
</g>
<g>
</g>
<g>
</g>
<g>
</g>
<g>
</g>
<g>
</g>
<g>
</g>
</svg>
